<svg id="Layer_3" data-name="Layer 3" xmlns="http://www.w3.org/2000/svg" viewBox="0 0 524.37 496.14"><defs><style>.cls-1{fill:#a7a9ac;}.cls-2,.cls-3{font-size:262.49px;font-family:BudokanRounded-Bold, Budokan Rounded;font-weight:700;}.cls-2{fill:#9e9d9e;}.cls-3{fill:#58595b;}.cls-4{fill:#ec008c;}</style></defs><title>Logo</title><path class="cls-1" d="M202.49,439.39a672,672,0,0,1-64.92-56.91c-61.19-8.32-70.6-9.6-76.33-4.43-8.38-11.46-15-22.41-19.16-31.94l.1.24,1.81,4c4.12,8.93,10.36,19.06,18.12,29.63,4.11-5.22,16.27-3.49,74.71,4.79a663.31,663.31,0,0,0,63.49,55.56c47.15,36,84.92,52.82,105.14,49.68h0l3.56-.59C288.69,492.92,250.39,475.94,202.49,439.39Z"/><path class="cls-1" d="M193.91,443.11a640.8,640.8,0,0,1-59.23-51.57c-63-9.88-66.75-10.47-69.84-5.88a184.92,184.92,0,0,1-14.72-22.82l2.13,3.93A183.53,183.53,0,0,0,65.8,387.43c1.59-4.61,7.89-3.58,68.19,6.26a633.35,633.35,0,0,0,57.81,50.25c44.11,33.65,79.66,49.89,99.46,47.95l2.63-.28h0l1-.11C275,493.77,238.82,477.37,193.91,443.11Z"/><path class="cls-1" d="M185.58,446.22A607.38,607.38,0,0,1,132,399.88c-58.78-10.58-58.78-10.58-63-8.75,0,.4-.13.93-.19,1.33-3-4-5.81-8-8.27-11.8l1.32,2,2.06,3.08c1.83,2.7,3.82,5.46,5.94,8.25-.06-.28-.13-.64-.18-.92,2.54-2.34,2.54-2.34,61.65,8.74a603.49,603.49,0,0,0,52.2,45.06c40.79,31.11,73.92,46.66,93.19,46h0l3.63-.17C260.94,493.7,227.19,478,185.58,446.22Z"/><path class="cls-1" d="M129.41,407.47C74.75,396.25,74.75,396.25,72.57,397c.08.32.19.73.26,1.05l.86,1.09c0-.3,0-.69,0-1,2.47-.27,2.47-.27,55.08,11.05a568.35,568.35,0,0,0,46.71,40c37.46,28.58,68.15,43.36,86.72,43.77l3.6,0c-18.75-.16-50-15.13-88.34-44.34A578.73,578.73,0,0,1,129.41,407.47Z"/><path class="cls-1" d="M127,414.25C76.5,402.36,76.5,402.36,76.25,402.39l.85,1.05c1.17-.22,1.29-.25,12.79,2.9,18.26,5,22.85,6.12,36.49,9.48a532.94,532.94,0,0,0,41.38,35.23c34,25.92,62.06,39.83,79.8,41.29h0l3.78.26c-18-1.15-46.75-15.3-81.67-41.94A542.56,542.56,0,0,1,127,414.25Z"/><path class="cls-1" d="M438.5,92.53a18.8,18.8,0,0,0-1-2.64c-.63-1.44-1.4-3-1.89-4q-1-2.06-2-4.07c.67,1.33,1.32,2.67,2,4C438.22,92.36,438.37,92.46,438.5,92.53Z"/><path class="cls-1" d="M439.12,92.9A21.44,21.44,0,0,0,438,90.16c-.71-1.5-1.58-3.15-2.11-4.13-.73-1.41-1.48-2.82-2.25-4.21q1.13,2.07,2.19,4.18C438.88,92.76,439,92.82,439.12,92.9Z"/><path class="cls-1" d="M439.71,93.24a26.17,26.17,0,0,0-1.31-2.84c-.79-1.52-1.74-3.23-2.33-4.24-.8-1.46-1.63-2.9-2.48-4.34.83,1.43,1.64,2.86,2.42,4.31C439.5,93.12,439.56,93.15,439.71,93.24Z"/><path class="cls-1" d="M440.29,93.53a31.91,31.91,0,0,0-1.47-2.91c-.86-1.58-1.89-3.32-2.53-4.34Q435,84,433.59,81.82c.9,1.46,1.79,2.94,2.65,4.43C440.1,93.44,440.13,93.45,440.29,93.53Z"/><path class="cls-1" d="M440.84,93.79c-.3-.7-1-2-1.61-3h0c-.93-1.6-2-3.38-2.73-4.43l-2.91-4.56q1.47,2.25,2.86,4.53C440.68,93.72,440.68,93.72,440.84,93.79Z"/><path class="cls-1" d="M468.62,353.29c.53-2,.41-3-.42-3.24-2.61.35-5.27,6.38-4.93,8.35.21,1.29,1.63,1.55,4-2,8.31.54,14.89-1,19.49-4.61a153,153,0,0,1-7,17.89l1.9-3.4a153.63,153.63,0,0,0,6.65-17.77C483.69,352.24,477.05,353.84,468.62,353.29Z"/><path class="cls-1" d="M462.78,365.53c.64-2,.55-2.91-.29-3.17-2.75.33-5.66,6.16-5.4,8.14.16,1.27,1.59,1.53,4.13-2,7.76.5,14-.76,18.65-3.82-2.12,7-2.12,7-8.34,18.28l2.13-3.29c3.5-5.53,3.5-5.53,8-18.19C477,364.71,470.68,366,462.78,365.53Z"/><path class="cls-1" d="M456.3,377.45c.72-1.95.68-2.84-.16-3.1-2.77.3-6.06,6-5.88,7.92.12,1.24,1.57,1.49,4.31-1.9,7.17.47,13.1-.56,17.64-3.07-2.72,7.54-2.72,7.54-9.82,18.62l2.38-3.2c4.22-5.88,4.32-6.12,9.43-18.53C469.64,376.84,463.61,377.92,456.3,377.45Z"/><path class="cls-1" d="M476,120.36l-1.26-2.09Z"/><path class="cls-1" d="M427.11,62.57l-1-.89h0c.69,2.8,3.43,9.8,7.53,20.15C427,64.35,427.07,63.06,427.11,62.57Z"/><path class="cls-1" d="M430.42,66l.74.13-1-.89-.05,0-.54.11c.09,3.32.79,5.91,4,16.49C430,69.64,430.22,67.71,430.42,66Z"/><path class="cls-1" d="M433.59,81.82c.1-.78.19-1.46.27-2.06C433.77,80.33,433.69,81,433.59,81.82Z"/><path class="cls-1" d="M486.53,142.44h0c-2.33-7.55-4.41-11.55-8.95-19.53L476,120.36c6,10,7.67,15.24,9,19.49,1.16,4.19,1.37,7.56.74,10.09-19.5-30.82-40-54.17-52.21-68.12,28.66,32.73,41.74,52.38,53.66,71.25C488,150.42,487.75,146.88,486.53,142.44Z"/><path class="cls-1" d="M480.39,132.16c-2.22-8.06-8.05-18.4-16.14-29.39l-.75-1h0c-1.33-1.8-3.17-4.15-4.54-5.92C474,115,477.34,125.25,478.74,129.65a18.39,18.39,0,0,1,.74,8c-17.72-25.13-34-42.89-45.89-55.86,26.4,28.83,37.63,44.79,47.54,58.88A19.05,19.05,0,0,0,480.39,132.16Z"/><path class="cls-1" d="M473.54,122.22c-3.81-13.83-20.44-35.77-40-53.82a3,3,0,0,0-.67-.18c-1.38,1.83-1.13,3.89.74,13.6C432,72.9,432.39,71.39,433,69.3l1.09-.25c18.43,17,34.06,37.7,37.65,50.74a16.14,16.14,0,0,1,.68,6.1c-14.24-18.16-24.61-29.24-38.81-44.07a525.34,525.34,0,0,1,40.65,47A16.51,16.51,0,0,0,473.54,122.22Z"/><path class="cls-1" d="M466,112.59h0c-3.6-11.35-14.47-26.09-30.61-41.51h0c-2.3.93-2.13,4-1.77,10.74-.4-7.89.42-8.61,2.07-10,13.89,13,25.58,28.58,28.3,38.47a13.24,13.24,0,0,1,.57,4.33c-12.17-14-20-21.86-30.94-32.76,16.59,16.59,22.07,22.92,33,35.53A14.06,14.06,0,0,0,466,112.59Z"/><path class="cls-1" d="M458.13,106.48a10.74,10.74,0,0,0-.44-3.13c-2.09-7.56-10.93-19.4-21.51-29.42-1.54,1.39-1.81,2-2.32,5.83.35-2.38.75-2.94,2.36-5.1,9.49,9,17.41,19.64,19.29,26.44a10.58,10.58,0,0,1,.4,2.76c-8.23-8.57-9.3-9.59-22.32-22C445,92.71,447,94.81,458.13,106.48Z"/><path class="cls-1" d="M448.69,94.51c-.62-2.14-3.1-8.14-12.73-17.57a20.42,20.42,0,0,0-2.37,4.88,25,25,0,0,1,2.15-4.1c2.57,2.48,8.73,8.87,10.57,14.62a5.57,5.57,0,0,1,.23,1.39c-3.84-3.62-9.05-8.35-13-11.91,4.67,4.27,10.79,10.05,15.38,14.4A7,7,0,0,0,448.69,94.51Z"/><path class="cls-1" d="M439,86.06c-.42-1.53-2.16-3.9-4.28-6l-1.09,1.71.61-.9a8.66,8.66,0,0,1,2.23,3.1c0,.08,0,.19,0,.27l-2.88-2.47,5.47,4.76A2.35,2.35,0,0,0,439,86.06Z"/><path class="cls-1" d="M363.74,453.88c5-12.59,6-16.25,9.32-32.64,1.6-1.52,3.2-3.07,4.78-4.65,64.24-64,95.82-156.53,88.17-238.19-4.95-14.58-5.18-15.22-16.83-48.79a143.05,143.05,0,0,1-12.91-8.86A206.76,206.76,0,0,1,401,86.33l.85-1.26c-3.52-1.17-5.18.25-6.16,1.09a5.23,5.23,0,0,0,3,.93A241.51,241.51,0,0,0,436.06,123a149.64,149.64,0,0,0,13.28,9.13C461.78,169,461.78,169,465.21,179.28c6.57,81-25.43,172.75-89.33,236.41q-2.89,2.88-5.82,5.63a141.36,141.36,0,0,1-9.71,34.17c16.52,5,29.26,5,37.27-.05l3.07-2C392.78,458.62,380.15,458.73,363.74,453.88Z"/><path class="cls-1" d="M350.12,460c6.25-13.69,7.66-20.63,10.8-38.68,3-2.74,6-5.59,8.93-8.52,62.88-62.65,96.14-151.83,92.74-231-4.35-14-8.77-28-13.15-41.94-4.43-2.73-9.19-6-14.22-9.85-23.91-18.24-47.13-43.76-59.2-64.48l1.6-.71s-4.09-3-8.19-.68a18.61,18.61,0,0,0,3.29,1.15c13.12,21.55,37.28,48.09,62.16,67.07,5.11,3.9,9.95,7.25,14.46,10.05q6.14,20.1,12.31,40.17c2.35,78.55-31.32,166.89-93.85,229.2q-4.94,4.91-10,9.48c-3.44,21.74-5.29,26.61-11.17,40.16,16.9,5.52,30,6,38.43,1.42l3.19-1.79C380,465.76,366.93,465.38,350.12,460Z"/><path class="cls-1" d="M336.29,465.33c7.68-14.5,9.73-28.44,12.11-44.57q6.62-5.85,13.08-12.29C423,347.19,457.84,261.38,458.57,184.8c-6.28-22-6.28-22-9.89-34.74-4.72-3-9.75-6.49-15-10.52a271.08,271.08,0,0,1-48.76-48.07c.12-.46.27-1.08.39-1.54-2.84-1.37-4.82-.24-6.47.93.05.48.1,1.13.14,1.62a9.56,9.56,0,0,0,3.1.33A330.3,330.3,0,0,0,433.17,142q8,6.09,15.17,10.64c2.64,9.63,3.76,13.63,9.12,32.87-1.73,75.92-36.95,160.88-98.12,221.82q-7,7-14.15,13.24c-3,25-6.65,33.79-12.37,46,17.23,6,30.71,7,39.46,2.85l3.23-1.56C366.84,472.1,353.44,471.23,336.29,465.33Z"/><path class="cls-1" d="M322.38,469.87c7.85-15.14,10.27-26.34,13.15-50.27q8.73-7.5,17.26-16c60.15-59.92,96.47-142.36,101.14-216.24-2.11-8.12-4.91-19-7-27.1q-7.31-4.71-15.39-10.87c-31.47-24-62-57.59-78.07-84.95L355,63.21c-1.11-1.23-3.65-1.65-7.54-1.27l-1,1.51A15.45,15.45,0,0,0,350,64.58c17.07,28.06,48.53,62.61,80.91,87.32q8.07,6.15,15.4,10.9c1.88,7.55,4.42,17.61,6.33,25.15C447,261.13,410.37,342.74,350.57,402.32q-9,9-18.3,16.88c-2.9,26.25-5.4,35.9-13.38,51.68,17.4,6.49,31.13,8,40.19,4.31l3.33-1.37C353.42,477.59,339.74,476.24,322.38,469.87Z"/><path class="cls-1" d="M308.38,473.65c10.35-17.15,12.2-36.83,14-55.87q10.81-9,21.39-19.56c58.79-58.56,96.46-137.65,104.93-208.73-1.35-5.73-3.12-13.37-4.46-19.11q-7.29-4.81-15.26-10.88c-22.55-17.2-44.68-38.82-61.58-61.15,0-.49,0-1.14,0-1.62,0,0-4-2.55-7.26,1.71l.54,1.58a10.06,10.06,0,0,0,3.49.39,413.86,413.86,0,0,0,64.11,61.65q7.89,6,15.15,10.84c1.15,5.12,2.72,11.94,3.88,17-9.38,70.37-47.38,148.62-105.82,206.85q-11.07,11-22.42,20.44c-2.72,36.37-8.27,46.5-14.15,57.23,17.5,6.91,31.4,8.84,40.73,5.72L349,479C339.72,482.27,325.86,480.45,308.38,473.65Z"/><path class="cls-1" d="M294.4,476.67c9.44-16,12.29-28,14.54-61.28q12.84-10.5,25.48-23.07c57.42-57.2,96.33-133,108.4-201.18l-2.27-10.75q-7.05-4.74-14.67-10.55c-38.57-29.43-76-70.58-95.34-104.38l.94-1.55s-3.65-3-8.86-.27c.12.5.29,1.17.41,1.67a16.6,16.6,0,0,0,3.47.85c20.79,34.16,59.1,76.24,98.53,106.32q7.49,5.72,14.45,10.43l1.78,8.57C428.32,259,389.12,333.9,332,390.77a354.77,354.77,0,0,1-26.5,23.93c-1.7,40.87-8.57,52.42-14.63,62.61,17.5,7.27,31.51,9.65,41.06,7l1.24-.34h0l2.2-.63C325.91,486.13,311.91,483.86,294.4,476.67Z"/><path class="cls-1" d="M493.9,169.11c-9.45-17.39-13-23.06-25.64-41.83A6,6,0,0,1,466,128c-1.46-2.49-1.75-2.74-2-3,0,.08,3.56,8.51,4.84,8.87a16.47,16.47,0,0,0-1.19-2.86,6.54,6.54,0,0,0,2.3-.72c13.52,20.53,16.58,26.05,25.1,42,1.19-3.29,1-7.89-.58-13.81-.9-3.21-1-3.46-3.58-9.8h0l-1.95-4.32a74.22,74.22,0,0,1,4.34,11.43C494.82,161.51,495,165.92,493.9,169.11Z"/><path class="cls-1" d="M501.61,195.65C494.07,177.88,491,172,480.13,152.21a10.84,10.84,0,0,1-3.92.7c-1.19-2.62-1.51-2.88-1.85-3.16-.37,1.32,2.34,8.11,3.4,9.41l.32-.14a10.41,10.41,0,0,0-.65-2.94,11.7,11.7,0,0,0,3.93-.67c11.7,21.6,14.18,27.29,21,43.66,2.65-6.08,1.83-10.52,0-18.49q-.4-1.41-.84-2.82C503.72,185.72,503.64,191.67,501.61,195.65Z"/><path class="cls-1" d="M484.72,165.09a12.2,12.2,0,0,1-2,.45c-1.1-2.64-1.43-2.88-1.77-3.14-.35.38,1.53,8.15,3.26,9.66.18-.31.34-.6-.38-3.31a11.12,11.12,0,0,0,1.91-.41c10.8,22.09,13,27.85,19,44.39,2.57-4,3.06-10.12,1.13-18.39l-.83-3.61c2.05,8.35,1.67,14.53-.82,18.57C497.56,191.32,494.78,185.29,484.72,165.09Z"/><path class="cls-1" d="M502.37,180.58c-.09-.31-.17-.62-.27-.93l-1.21-4.07c.23.74.45,1.47.64,2.18Q502,179.17,502.37,180.58Z"/><path class="cls-1" d="M498.27,168.08l-.51-1.38c2.17,8.27,1.6,11.39.41,15.54-8.48-17.59-11.8-23.39-23.53-42.67a10.15,10.15,0,0,1-5.25.73c-1.25-2.57-1.56-2.85-1.89-3.15-.15.77,2.46,8.19,4,9.29,0-.5,0-.87-.76-3a10.68,10.68,0,0,0,5.38-.7c12.6,21.08,15.37,26.69,23,42.87,2-5.1,1.17-9.45-.34-16.12h0c-.48-1.72-1.28-3.95-1.83-5.64L495.51,160a69.6,69.6,0,0,1,2.25,6.71Z"/><path class="cls-1" d="M327.35,37.43c.3,1.1.65,2.22,1,3.36,24,9.11,24,9.11,76.88,30,5.69,9.39,15.55,20.68,26.23,29.79a80.64,80.64,0,0,0,2.1-18.74,78.26,78.26,0,0,1-2.14,16.67c-9.71-8.35-18.63-18.62-23.76-27.15-43.62-17.7-51.45-20.84-76.18-30.46-.32-1-.62-2-.88-2.91-3.87-14,.17-21.12,10-21.43,32.09,9.89,51.56,24.08,63.2,32.56.46.16.94.35,1.43.54a14.75,14.75,0,0,0,2.61,2s-4.19-4.34-6.09-5.09l1.32,1.22c-.46-.19-.91-.36-1.35-.52C377,28.42,352.51,20.3,337.86,15.44,327.6,15.64,323.35,22.9,327.35,37.43Z"/><path class="cls-1" d="M417.36,74.29C379.05,56.81,362,49.54,343.91,41.84c-.13-.44-.26-.88-.38-1.32-3.35-12.17-.08-18.48,8.1-19.13C382.93,32.76,401.21,48,412.13,57a31.5,31.5,0,0,1,4.51,2c1.39,1.48,1.39,1.48,2,1.82,0,0-3.28-4.2-4.84-5,.32.38.76.88,1.09,1.25A34.73,34.73,0,0,0,410.06,55C387,34.89,363.13,25.64,348.87,20.11c-8.57.57-12,7.08-8.55,19.71.15.56.32,1.12.5,1.69C358.21,48.76,374.64,55.6,415,73.46c3.55,6,9.76,13.27,16.6,19.31a70.38,70.38,0,0,0,2-11,66.74,66.74,0,0,1-1.91,9.23A75.45,75.45,0,0,1,417.36,74.29Z"/><path class="cls-1" d="M426.86,78.29c-30.51-15.69-48.51-24.2-70.6-34.51l0-.06c-2.85-10.33-.26-15.86,6.4-16.74,30.48,12.93,46.24,27.89,57.74,38.82a12.59,12.59,0,0,1,1.2.43,24.32,24.32,0,0,0,2.13,2.31c0-.05-3.62-4.84-5.7-6.49.35.46.5.65,1.62,2-.45-.18-.88-.34-1.3-.47-21.43-21.36-44.6-31.79-58.45-38-7,.84-9.77,6.57-6.8,17.35l.1.34c21.8,9.95,39.67,18.2,71.32,34a41.84,41.84,0,0,0,7.78,9.27c.52-1.62,1-3.17,1.31-4.64-.29,1.06-.64,2.16-1,3.31A31.37,31.37,0,0,1,426.86,78.29Z"/><path class="cls-1" d="M433.44,81.6h0a1.7,1.7,0,0,0,.15.22c-.29-.43-.58-.87-.89-1.3C432.93,80.89,433.19,81.24,433.44,81.6Z"/><path class="cls-1" d="M381.88,38.53c-4.05,1-5.7,4.61-4.25,11,24,13.1,36,20,56,32.25C415.92,70.72,404,63.73,380.64,50.65c-1.29-5.94.24-9.35,4-10.3C411,56.13,420,65.91,433.59,81.82,416.25,61.2,407.06,53.51,381.88,38.53Z"/><path class="cls-1" d="M392.78,46.11c-2.84.86-4,3.57-3.15,8.15,22.24,13.29,27.87,16.95,44,27.56-17.95-12.12-25.65-16.84-41-26.24-.78-4.16.32-6.64,2.9-7.47,17.47,11.94,22.82,16.66,38.1,33.71C417.5,63.55,412.27,59.36,392.78,46.11Z"/><path class="cls-1" d="M140.87,449.3l-.37.37c.44,1.59,3.91,2.69,4.81,2.84,1.14.19,1.32,0,1.65-.34-.21-.64-.21-.64-.84-1.19a9.66,9.66,0,0,0-3.69-1.64c-7.3-5.73-14.54-11.84-21.62-18.21-23.4-8.64-29-12.31-33.12-15.6l.89,1c5.73,5.39,22,11.72,31.68,15.5C127,438,133.92,443.84,140.87,449.3Z"/><path class="cls-1" d="M129,447.65l-.17.21c.83,1.26,4,2.48,4,2.49,1,.36,1.18.29,1.51.16-.14-.41-.14-.41-.67-.85a12.71,12.71,0,0,0-3.16-1.68c-4.72-3.71-9.41-7.61-14-11.65-13.7-6.81-16.13-8.81-21.44-13.2l1,.95c5.46,5,11.54,8.18,19.94,12.63C120.37,440.5,124.78,444.15,129,447.65Z"/><path class="cls-1" d="M138.73,455.89c-.74-.46-1.41-.84-2.83-1.56q-3.63-2.56-7.42-5.46c-4.71-3.59-9.39-7.4-14-11.37-8.76-5.26-10.34-6.2-15.41-10.57l.62.58.42.39A82.78,82.78,0,0,0,114,437.64c4.33,3.72,8.73,7.29,13.14,10.66q3.67,2.81,7.2,5.29c-.17-.07-.38-.14-.55-.19.39.62,3.69,2.32,3.72,2.33h0a5.11,5.11,0,0,0,2,.78A2.33,2.33,0,0,0,138.73,455.89Z"/><path class="cls-1" d="M503.43,292.76c-4,3.22-9.76,4.58-17,4.11,0-.8.15-3.24-.92-3.44-.19,0-5.25,7.41-2.05,9.9.71-.23,1.31-.43,2.3-3.16,7.51.48,13.41-1,17.46-4.35,6.18-22.21,6.64-31.55,7.64-52a58.62,58.62,0,0,0,.67-8.27l-.23-3.82a27.45,27.45,0,0,1-.69,9.2C510.19,264.7,508.07,273.5,503.43,292.76Z"/><path class="cls-1" d="M511.29,252.44c-1.28,24.18-3.74,33-9.13,52.46-6.58,6.23-18.53,6.86-34.67,2a305.61,305.61,0,0,0,11.1-59.1c1.27-1.74,2-7.54-.24-9.64-2.47.7-2.4,7.4-1.19,9.52a288.83,288.83,0,0,1-12.09,62c17.21,5.45,29.88,4.9,36.66-1.8,7-22.36,7.85-31.84,9.62-52.62a28.1,28.1,0,0,0,.46-5.2v-3.6A28.29,28.29,0,0,1,511.29,252.44Z"/><path class="cls-1" d="M458.74,318.3c.11-.82.45-3.33-1.05-4-2.21-.95-5.49,5-4.55,8.23.36,1.27,2,2.77,4.43-1.08,20.25,7,34.86,6.5,42-1.8,6.47-18.44,8.41-28.23,10.28-42.77-2,15.4-4.78,24.26-9.66,39.86C493,324.75,478.61,325.2,458.74,318.3Z"/><path class="cls-1" d="M510.05,275.11c-.08.61-.15,1.21-.23,1.8C509.9,276.32,510,275.72,510.05,275.11Z"/><path class="cls-1" d="M510.05,275.11c.34-2.67.67-5.49,1-8.58.09-.65.15-1.31.19-2l.21-3.61a27.58,27.58,0,0,1-.26,2.82C510.86,268,510.47,271.69,510.05,275.11Z"/><path class="cls-1" d="M508.61,287.91l.11-.78c-.07.45-.14.86-.21,1.3C508.54,288.25,508.58,288.09,508.61,287.91Z"/><path class="cls-1" d="M508.51,288.43c-1.24,6.1-2.16,10.61-3,14.34C506.64,298.39,507.62,293.76,508.51,288.43Z"/><path class="cls-1" d="M508.72,287.13c.38-2.34.74-4.83,1.1-7.5Z"/><path class="cls-1" d="M475.63,335.85c.12-.65.44-2.37-.1-3-1.69-2-5.31,5.7-4.77,8.31.22,1.05,1.45,2,3.71-2.11,10.28.66,17.84-1.95,22.14-7.9,5.19-14.07,6.73-18.46,8.92-28.35-2.09,8.22-4.68,15.65-8.12,25.52C493.11,334,485.68,336.5,475.63,335.85Z"/><path class="cls-1" d="M417,441.73c14.87-14.73,18.78-23.29,24.51-45.08a86.34,86.34,0,0,1-14.92-3c.85-1.95.76-3-.3-3.48-3.23-.4-6.78,4.24-7,6.53-.22,2,1.78,2.91,5.28-.28a89,89,0,0,0,14.38,3C432.8,422.1,428.37,430,414,444a16.22,16.22,0,0,0,1.66-1.14h0l2.91-2.26C418.08,441,417.56,441.38,417,441.73Z"/><path class="cls-1" d="M272.34,34.48c8.41,30.56,41,76.38,81.81,118.22-41.59,38.92-92.73,88.29-141.8,137.19-9.62,9.58-18.78,18.77-28.14,27.23-1.59-.16-5.32-.53-6,3.53a5.06,5.06,0,0,0,7.49,5.26c2.54-2,2-4.26,1.52-6.11q13-13.1,27.48-27.49c49.9-49.71,101.61-100.24,143.07-140-40.94-41.63-73.73-87.52-82.12-118-6.09-22.13,1.83-31.88,19.53-29.7l-3.72-.4C274,2.37,266.23,12.31,272.34,34.48Z"/><path class="cls-1" d="M143.52,366.69c2.23,3.53,5.38,2.68,6.1,2.26.92-.55,2.92-2.89,0-6.34-3.12-2.66-5.74-1.53-6.63.89-62.06-6.37-76.8-7.88-87.49-1.92-11.79-16.65-20.34-32.23-24-44.76l1.2,4C36.54,333,44.86,348,56.2,363.9,60.67,360.92,67.43,356.41,143.52,366.69Z"/><path class="cls-1" d="M132,354.57c2.18,3.52,5,2.77,5.87,2.22,0,0,3.3-2.42,0-6.54-3-2.7-5.54-1.48-6.36,1-52-4.57-66.51-5.11-78.44.6C40.78,334.18,32,317.7,28.32,304.49c-.24-.88-.45-1.73-.64-2.56l.85,3.67c.14.56.29,1.14.45,1.72,3.6,13.1,12.4,29.47,24.67,47.05C58.46,351.71,67.4,346.75,132,354.57Z"/><path class="cls-1" d="M259,35.43c8.45,30.7,39.9,75.93,80,118.32-41.63,35.83-90.25,80.78-136,126.39a19,19,0,0,1-4.86,3.85c-5-.77-6.18,2.79-6.41,3.9a5,5,0,0,0,7.57,5.34c2.05-1.35,2.68-3.54,1.88-6.51l4.14-4.13c46.61-46.44,95.89-92.47,137.58-129-40.34-42.3-72.1-87.72-80.55-118.41-6.13-22.26,1.12-32.71,17.9-31.76l-2.8-.14-.92,0C260,2.53,252.86,13.14,259,35.43Z"/><path class="cls-1" d="M49.89,333.39c6.25-2.49,17.88-7.1,63.63-3.23,2,3.67,4.73,2.73,5.52,2.11,0,0,3.07-2.71,0-6.9-2.82-2.71-5.25-1.44-6,1.36-38.55-1.83-50.42-1.11-63.49,3.87-12.25-18.32-21-35.29-24.83-49.13a58.92,58.92,0,0,1-1.88-9.68l.41,3.83A59.14,59.14,0,0,0,25,284.37C28.81,298.16,37.61,315.11,49.89,333.39Z"/><path class="cls-1" d="M232.39,39.23c8.31,30.16,36.74,73,74.13,115.1A1230.14,1230.14,0,0,0,184.91,260.44a19.73,19.73,0,0,1-4.83,3.85c-4.9-.78-6.08,2.8-6.33,3.92-.9,4.09,3.14,7.89,7.25,5.4,2-1.37,2.69-3.58,2-6.55l4.14-4.15a1318.05,1318.05,0,0,1,123.6-108.55C272.9,112.16,244,68.9,235.7,38.62c-6.24-22.65,0-34.25,15.53-35.14l-3.63.25C232.3,4.85,226.15,16.57,232.39,39.23Z"/><path class="cls-1" d="M48,310.17c11.79-4.05,21.52-4.92,43-5.32,1.35,3.45,3.84,3.57,5.13,2.32,0,0,2.74-3-.05-7.19-2.56-2.69-4.66-1.1-5.34,1.75-24,.44-31,1.61-42.83,5.4C36.26,288.9,27.88,272.06,24,258.08a55.51,55.51,0,0,1-2.3-15.35l0,3.66A55.34,55.34,0,0,0,24,261C27.81,275,36.26,291.89,48,310.17Z"/><path class="cls-1" d="M48.3,285.15c10.22-2.95,13.53-3.39,25.92-4.78,1,3.13,3.19,3.68,4.57,2.07a6.71,6.71,0,0,0,.06-7.43c-2.43-2.8-4.32-.35-4.83,2.18-14.1,1.56-16.07,2.11-25.53,4.73C37.75,264.39,30,248.21,26.25,234.54c-2.28-8.26-3-15.12-2.23-20.6l-.47,3.55c-.64,5.36.06,12,2.26,20C29.59,251.21,37.42,267.5,48.3,285.15Z"/><path class="cls-1" d="M54.28,255.66c16.87-3.7,29.4-4.58,56.25-5.21a447.61,447.61,0,0,1,34.6-38.52,411.92,411.92,0,0,1,43.37-37.88,5.57,5.57,0,0,0,4.27-.51s4.61-2.89,2.15-7.17a7.34,7.34,0,0,0-.61-.64c-2.29-1.9-8.76-.65-8.19,5.67a521.13,521.13,0,0,0-42.8,38.1,438.29,438.29,0,0,0-33.75,37.59c-28.83.66-38,1.75-54.72,5.19C44.49,234.84,37,218.74,33.21,205c-3.05-11.1-3.49-19.89-1.6-26.4l-1,3.43c-1.77,6.42-1.31,15,1.68,25.88C36.14,221.76,43.75,238,54.28,255.66Z"/><path class="cls-1" d="M56.78,242.06c16.2-3.76,31.89-4.38,50.05-5.09A411.38,411.38,0,0,1,138,202.27q8-7.94,16.31-15.48a4.58,4.58,0,0,0,4.74-.39c3-2,3.73-6.22,1.42-8.2-2.77-2.36-8.78.51-7.86,6.2q-8.35,7.53-16.33,15.47A403.38,403.38,0,0,0,106,233.6c-26.76.83-35.86,2.59-48.46,5-9.61-16.62-16.59-32-20.24-45.22C33.91,181.23,33.62,171.77,36,165l-1.18,3.38c-2.28,6.73-2,16,1.32,27.94C39.87,209.68,47,225.23,56.78,242.06Z"/><path class="cls-1" d="M68.22,200.49c10.87-2,13.79-2.23,30-3.68q9.6-11.49,20.87-22.74A377.32,377.32,0,0,1,162.54,137a4.7,4.7,0,0,0,4.64-.17h0s4.69-2.7,2.87-6.75a7.11,7.11,0,0,0-.49-.6c-2.36-2.2-8.61.26-8.39,5.3a370.8,370.8,0,0,0-43.52,37q-10.75,10.72-20,21.72c-12.2,1-12.8,1.05-28.2,3.48-7.22-13.61-12.56-26.26-15.65-37.48-4.19-15.2-3.86-26.42.33-33.73L52.35,129c-4,7.29-4.29,18.38-.17,33.34C55.32,173.71,60.8,186.6,68.22,200.49Z"/><path class="cls-1" d="M419.24,204.91c-1.44-.84-2.28-.1-3.54,1l-2.66-2a519.54,519.54,0,0,1-40.75-34.73c-36.35,44.3-84.41,97.26-133.75,146.43q-7.83,7.8-15.37,15.14c.85,33.51,3.57,67,3.73,100.5a7.75,7.75,0,0,0-2.92,2.06c.65,4.35,6.41,5.59,9.63,2.08-.31-2.23-.37-2.64-3.18-3.91-.31-33.16-2.83-66.23-3.8-99.37q7.08-6.87,14.39-14.17c48.53-48.34,95.49-100.66,131.12-145,12.85,12,26.22,23.4,39.69,33.68a8.94,8.94,0,0,1,2.63,2.75c.29,3.23.64,3.4,2.56,4.37a6,6,0,0,0,2.75-1.94h0C421.52,208.45,420.26,206.49,419.24,204.91Z"/><path class="cls-1" d="M386.76,237c2.53.45,7.16-4.13,3.41-8.86-1.74-.9-2.36-1-4.43.46q-6.48-5.22-12.9-10.69A879.66,879.66,0,0,1,268.93,342.87l-3.37,3.33c.66,25.44.66,25.44.53,39.78a4.48,4.48,0,0,0-2.54,3c-.7,3.53,3.91,6.55,8.3,4.31h0c2.94-1.66,3.48-5.93-1.43-7.68-.65-17.52-.65-17.52-1.27-38.23l2.35-2.33A839.2,839.2,0,0,0,373.09,222.27q5.49,4.64,11,9.08C383.4,235.93,385.73,236.85,386.76,237Z"/><path class="cls-1" d="M433.76,82l-.17-.21c.71.88,1.39,1.79,2.12,2.64C435.54,84.22,434.85,83.36,433.76,82Z"/><path class="cls-1" d="M486.52,193.76,454.22,121a10.23,10.23,0,0,0-1.56-2.85l-.09,0c0,.33,1.95,7.81,3.43,8.27,17.07,35.83,24.72,55.12,30.87,70.62a21.16,21.16,0,0,0,5.92-.33c.73,2.42,1,2.64,1.49,3.13.19-.4.51-1.07-.13-4.2a20.62,20.62,0,0,0-1.82-5.41h-.56a11.26,11.26,0,0,0,.25,3.16A20.56,20.56,0,0,1,486.52,193.76Z"/><path class="cls-1" d="M423.53,59.67a20.25,20.25,0,0,0-2.14-1.89l-1.26-1,0,0-.07-.06-1.44-1.14c1.57,1.26,3,2.63,4.59,3.91C423.46,59.67,423.46,59.67,423.53,59.67Z"/><path class="cls-1" d="M350.9,18c5.45,2.17,5.54,2.19,6.08,2.32,11.5,4.71,12.77,5.4,28.33,13.83a106.8,106.8,0,0,1,14.06,7.67,115.72,115.72,0,0,0-16.07-9c-17.24-9.68-33.1-15.43-34.44-15.68.67.28,1.36.55,2,.82Z"/><path class="cls-1" d="M405.83,46.16c-2.22-1.56-4.37-3-6.46-4.31.75.49,1.51,1,2.28,1.51Z"/><path class="cls-1" d="M245.65,37c8.42,30.56,38.47,74.8,77.43,117.25a1672.91,1672.91,0,0,0-129.26,116c-9.62,9.58-18.7,18.86-27.85,27.51-1.54-.16-5.13-.53-5.82,3.62-.66,4,3.32,7.67,7.19,5.35,1.87-1.26,2.38-3.37,1.52-6.26q12.78-13.36,27.22-27.77c43.31-43.15,89.85-85,131-118.57-39.29-42.48-69.71-87-78.14-117.63C242.78,14.06,249.54,3,265.69,3l-3.61,0C246.09,3.26,239.44,14.46,245.65,37Z"/><path class="cls-1" d="M219.19,42.08c8.12,29.51,34.73,70.7,70.19,111.9a978.54,978.54,0,0,0-113.14,96.55c-9.62,9.59-18.61,19-27.57,27.8-4.5-.83-5.46,2.65-5.65,3.73-.69,4,3.07,7.74,6.83,5.36,1.81-1.3,2.34-3.43,1.58-6.34q12.52-13.65,27-28a1030.28,1030.28,0,0,1,115.33-98.91c-36-41.46-63.07-83.11-71.25-112.81-6.24-22.64-.48-34.7,14.22-36.49l-3.52.45C218.6,7.25,212.94,19.41,219.19,42.08Z"/><path class="cls-1" d="M193.21,49.66c7.57,27.52,30.13,64.5,60.88,102.71a697.81,697.81,0,0,0-94.3,78.41c-9.62,9.59-18.53,19.07-27.31,28.08-4.29-.79-5.28,2.74-5.48,3.84-.75,4.08,2.77,7.75,6.41,5.3,1.75-1.33,2.31-3.49,1.64-6.42q12.28-13.92,26.73-28.33a721.8,721.8,0,0,1,96.8-80.64c-31.4-38.67-54.48-76.23-62.14-104-6.23-22.64-1.31-35.43,12.14-38.65l-3.52.88C191.79,14.19,187,27.06,193.21,49.66Z"/><path class="cls-1" d="M59.93,228.27c14.77-3,21.44-3.54,43.57-4.77a380.74,380.74,0,0,1,27.81-30.79,439.5,439.5,0,0,1,43.13-37.63,4.85,4.85,0,0,0,4.78-.19s4.65-2.8,2.5-7a6.53,6.53,0,0,0-.55-.63c-2.11-1.85-8.47-.64-8.3,5.48a430.84,430.84,0,0,0-43.18,37.57,376.3,376.3,0,0,0-27,29.8c-22.51,1.14-29.4,2.39-41.91,4.66C52,209.12,45.53,194.59,42.05,181.94c-3.65-13.24-3.75-23.35-.75-30.38l-.75,1.78-.64,1.53c-2.85,7-2.7,16.93.88,29.92C44.31,197.6,50.9,212.34,59.93,228.27Z"/><path class="cls-1" d="M100.62,210.11A356.91,356.91,0,0,1,125,183.32q8-7.94,16.37-15.4a4.38,4.38,0,0,0,4.56-.43c3-2,3.92-6.11,1.81-8-2.53-2.28-8.45.58-7.88,6.12q-8.41,7.46-16.38,15.39-12.81,12.76-23.5,25.79c-18.92,1.39-21.4,1.81-35.18,4.15-25.94-48.25-20.23-64.56-17.48-72.39l-1.58,3.23c-9,21,9.25,55.89,18,72.63C76.85,212.14,80,211.6,100.62,210.11Z"/><path class="cls-1" d="M73.43,186.57c6.83-1.06,16-2.17,22.86-2.91q8.07-9.42,17.3-18.63,8-7.93,16.42-15.32a4.21,4.21,0,0,0,4.38-.48c3-2,4.11-6,2.23-7.8-2.27-2.17-8.09.7-7.9,6.06q-8.44,7.38-16.43,15.31-8.72,8.69-16.4,17.61c-6.33.65-14.75,1.77-21,2.69-6.39-12.47-11.17-24.09-14-34.49-4.44-16.14-3.87-27.85,1-35.21l-2,3c-4.68,7.36-5.18,19-.8,34.86C61.91,161.93,66.83,173.81,73.43,186.57Z"/><path class="cls-1" d="M79.36,172.74c4.65-.73,10.89-1.45,15.56-2q6.47-7.33,13.65-14.5a334.38,334.38,0,0,1,43.77-36.61,4.55,4.55,0,0,0,4.46-.22h0s4.7-2.61,3.26-6.47c-.13-.17-.28-.42-.43-.58-2.1-2.08-8.28.32-8.44,5.14A328.6,328.6,0,0,0,107.38,154q-6.67,6.65-12.73,13.47c-4.12.45-9.59,1.27-13.7,1.83a179.93,179.93,0,0,1-12.43-31.38c-4.68-17-3.85-29.14,1.63-36.49l-2.17,3c-5.32,7.36-6.08,19.4-1.46,36.19A181.07,181.07,0,0,0,79.36,172.74Z"/><path class="cls-1" d="M123.08,75.26a8.43,8.43,0,0,0-2.35,3.32c-.57,2.11,1.57,2.18,3.83.93A10.47,10.47,0,0,0,129,74.84c.39-1.11.24-2.86-3.13-1.5-2.81-16,.39-26.57,8.58-31.8l-3.06,2C123.41,48.83,120.29,59.37,123.08,75.26Z"/><path class="cls-1" d="M158.37,84.78c-4.91,4.28-3.33,7.78.08,8a9.14,9.14,0,0,0,3.48-.7h0c2.76-1.15,7.25-4.91,5.11-8.36-1.37-1.24-3-1.41-5.68-.58a145.21,145.21,0,0,1-6-17.21c-6-22-2.45-35.39,8.76-40.53l-3.27,1.53c-11,5.27-14.53,18.73-8.51,40.59A146.59,146.59,0,0,0,158.37,84.78Zm5.27.44c1.74.71.78,3.25-1.67,4.46-1,.47-2.81.93-3.52-.37C157.66,87,161.61,84.39,163.64,85.22Z"/><path class="cls-1" d="M116.62,100.65a8.34,8.34,0,0,0-1.78,3.16c-.62,2.63,1.53,3.54,4.32,1.84h0a9.14,9.14,0,0,0,3.76-4.44c.67-2,0-4.17-3.58-2.67-1-2.84-1.86-5.62-2.6-8.31-5.65-20.51-3.26-33.93,5.64-40.42L119.43,52c-8.73,6.56-11,20-5.42,40.33Q115.12,96.38,116.62,100.65Z"/><path class="cls-1" d="M102.75,96.3a11.6,11.6,0,0,0,4.14-5.2c.35-1.2.18-3-3-1.28-2.63-15-.08-25.28,6.83-31l-2.85,2.39c-6.74,5.73-9.21,16-6.61,30.82a9.5,9.5,0,0,0-2.13,3.61C98.67,97.88,100.66,97.78,102.75,96.3Z"/><path class="cls-1" d="M404.16,233.35c.52,3.59,3.78,4.36,5.93,1.4a5.81,5.81,0,0,0-.42-7.23c-1.8-.58-2.22-.72-4,.83l-3-2.25c-10.28-7.85-20.51-16.28-30.53-25.12-30.84,43.12-70.69,90.37-113.46,133q-3.75,3.72-7.44,7.33c.52,19.45,1.4,38.89,1.86,58.34-1.06.46-2.66,1.16-3,2.91-.71,3.44,4.47,6.17,8.15,4.29,1.9-1,4.38-5-1.39-7.22-1.52-39.89-1.52-39.89-2-57q3.19-3.13,6.43-6.35c41.94-41.79,80.84-88.25,111-131,9.52,8.33,19.22,16.29,29,23.73a10.13,10.13,0,0,1,2.91,3C404.15,232.35,404.11,232.93,404.16,233.35Z"/><path class="cls-1" d="M236.73,411.82c-.67,3,3.81,5.92,8,4.27,1.88-.95,4.31-4.5-1.34-6.82-.91-23.94-2-47.87-2.72-71.82q5.16-5,10.44-10.28c45.24-45.07,88-94.59,120.87-138.47,8.08,7.3,16.32,14.35,24.63,21-.57,4.26,1.29,5.18,2.45,5.35,2.27.34,6.37-4.25,3-8.65-1.74-.86-2.26-.52-4,.63-8.82-7.09-17.54-14.59-26.08-22.38C338.41,228.75,294.6,279,248.54,324.88q-5.79,5.76-11.44,11.26c.33,12.58.33,12.58,2.82,73C238.73,409.56,237.1,410.18,236.73,411.82Z"/><path class="cls-1" d="M186.68,471.2c-.15-.43-.15-.43-.65-.78-2.53-1.39-6.23-1.93-7.24-1.33-.07,1.23,3.63,2.08,4.77,2.32,22.53,13.77,33.64,16.33,41,18l3.68.61c-10.92-1.8-25.37-8-42.4-18.47C186.37,471.5,186.37,471.5,186.68,471.2Z"/><path class="cls-1" d="M207.21,485.15a2.1,2.1,0,0,0-.3-.15,63.93,63.93,0,0,0-8.43-2,28.3,28.3,0,0,0,4.43,1.32,71.2,71.2,0,0,0,6.94,2.06l2.16.51,1.66.37a70.61,70.61,0,0,1-8-2.32C207,485.22,207,485.2,207.21,485.15Z"/><path class="cls-1" d="M174,471.93c0-.23,0-.23-.45-.5a21.13,21.13,0,0,0-6.9-2.14l-.14.14c.65.67,3.21,1.56,4.28,1.91A121.84,121.84,0,0,0,194,482.09l3.94,1.19c-7.1-2.14-15.46-5.93-24.84-11.36A2,2,0,0,0,174,471.93Z"/><path class="cls-1" d="M179,476.93h0l6.48,2.37.1,0-.23-.09C183.27,478.47,181.14,477.72,179,476.93Z"/><path class="cls-1" d="M153.13,460.48a15.37,15.37,0,0,0-3.64-1.67q-4.49-3.17-9.18-6.76c-7.3-5.56-14.56-11.56-21.66-17.85-16.49-7.05-22-10.42-27.35-14.89l.75.77.17.17c5.54,5.15,13.85,9.11,25.9,14.57,6.77,6,13.68,11.68,20.63,17,3.05,2.33,6.05,4.53,9,6.59h-.45c0,.12,0,.27,0,.38a14.57,14.57,0,0,0,4.39,2.18c1.33.42,1.39.4,2.1.16A3,3,0,0,0,153.13,460.48Z"/><path class="cls-1" d="M48.71,322c5.82-2.35,19.44-7.84,76.11-3.36,2.09,3.9,5.19,2.7,5.91,2.17,0,0,3.41-2.85.18-7.24-2.9-2.75-5.59-1.42-6.5,1.45-48.24-2.21-61.83-.86-75.91,4-12-18.35-20.64-35.33-24.49-49.3a57.33,57.33,0,0,1-2.15-12.48L22,261a57.6,57.6,0,0,0,2.09,11.77C28,286.69,36.62,303.67,48.71,322Z"/><path class="cls-1" d="M47.9,297.87c12.42-4,26.5-6.26,58.27-5.07,1.86,3.9,4.66,2.74,5.5,2,0,0,3.24-3.07.29-7.49-2.41-2.45-5.1-1.68-6.13,1.76C67.2,289,58.7,291.53,48,294.73c-11.27-18-19.36-34.53-23.18-48.41-2-7.13-2.7-13.18-2.31-18.15l-.2,2.83-.05.74c-.32,4.84.42,10.68,2.31,17.53C28.35,263.18,36.52,279.84,47.9,297.87Z"/><path class="cls-1" d="M433.32,103c-1.63.79-2.18,7.79-.62,8,.54.06,1.06-.89,1.33-2.41a11.74,11.74,0,0,0-.24-5.18,86.48,86.48,0,0,0-.2-21.55A84.92,84.92,0,0,1,433.32,103Zm.26,4.53c-.1.62-.38,1.6-.81,1.33-.72-.74-.12-3.95.46-3.94.37,0,.54,1.35.35,2.61Z"/><path class="cls-1" d="M295.49,34.36a88.86,88.86,0,0,0,3.27,9.55c4.95,1.49,11.55,3.46,16.5,5-1.77,1.69,2.14,3.06,5.72,3.31h0c2.17.14,7.92-.16,6.21-2.38-2.65-2-7.3-1.93-7.82-1.92-2.64.06-2.64.06-17.54-4.48a85.46,85.46,0,0,1-3-8.91C294,17,299.05,8.24,311.33,7.92L326.11,11c.07,0,7.92,2.48,10.12,2.86-.94-1.15-11-3.85-27.67-6.56C295.83,7.45,290.54,16.39,295.49,34.36ZM323.75,49.6c.92.47.87,1-.14,1.32a7.3,7.3,0,0,1-2.21.21h0c-1-.05-2.87-.33-3.36-1.12C317.63,48.73,321.86,48.65,323.75,49.6Zm3.66-38.5a37.24,37.24,0,0,1,6,1.76,37.62,37.62,0,0,1-4.06-1.06,15.49,15.49,0,0,1-2-.69A.13.13,0,0,1,327.41,11.1Z"/><path class="cls-1" d="M418.25,66.63c.38.4.63.65,2.95,2.83,1.49,1.39,3,2.8,4.46,4.19q4,4,7.93,8.17-3.87-4.2-7.89-8.19A84,84,0,0,0,418.25,66.63Z"/><path class="cls-1" d="M430.08,78.35c.4.4.81.77,1.2,1.17l-.36-.36Z"/><path class="cls-1" d="M431.28,79.52l2.31,2.3L432,80.21C431.76,80,431.52,79.76,431.28,79.52Z"/><path class="cls-1" d="M417.65,67c1,1,7.63,6.81,7.69,6.86,1.6,1.48,3.17,3,4.74,4.52-1.56-1.53-3.12-3.06-4.7-4.55A88.11,88.11,0,0,0,417.65,67Z"/><path class="cls-1" d="M411,64.37c-1.27-1-7.46-5.36-8.33-5.28a31.93,31.93,0,0,0,3.41,2.38c.14.09,3.54,2.3,4.92,3.06a241.25,241.25,0,0,1,20.68,15.64l1.94,1.65-3-2.6A243.27,243.27,0,0,0,411,64.37Z"/><path class="cls-1" d="M425.53,73.71a89,89,0,0,0-7.6-6.94c.4.41.66.66,3,2.82,1.52,1.38,3,2.77,4.54,4.14q4.11,3.93,8.1,8.09Q429.63,77.65,425.53,73.71Z"/><path class="cls-1" d="M402.68,60a28.36,28.36,0,0,0,3.43,2.3c.36.23,3.56,2.22,4.89,2.91,3.29,2.22,7,4.91,10.73,7.67q-5.25-3.72-10.66-7.13c-1.32-1-7.55-5-8.26-4.77a28.42,28.42,0,0,0,3.44,2.22c.14.09,3.49,2.08,4.86,2.74,4.72,2.93,9.34,6.07,13.86,9.36,3,2.29,6,4.55,8.62,6.54A240.82,240.82,0,0,0,411,65C409.69,64,403.47,59.81,402.68,60Z"/><path class="cls-1" d="M487.14,232c-1.72-5.69-4-13.27-5.8-18.93.4-4.3-1-10.48-2.7-10.33-2.26,2.11-.52,12.74,1.27,13.17.38.09.57-.16.82-.48,1.87,5.94,4.37,13.87,6.09,19.86,8.67,1.47,15.16.23,19-3.75l1.93,7.69c0,1.1.12,6.71.89,8.83l.31.07c.54-1.47.42-5.25.38-6.38a27.08,27.08,0,0,0-.94-6.62l-.31-.08a4.76,4.76,0,0,0-.26,1.48c-.66-2.54-1.54-5.92-2.21-8.46C501.91,232.07,495.6,233.36,487.14,232Zm-7.4-19.4c-1.33-.61-1.41-6.22-.64-6.58.56-.27,1.26,1.72,1.37,3.87h0C480.51,210.93,480.42,212.68,479.74,212.6Zm28.74,25.72a8.8,8.8,0,0,1,.48,3h0a12.48,12.48,0,0,1-.16,3.51c-.28.31-.48-1.64-.55-2.72C508.12,240.15,508.2,238,508.48,238.32Z"/><path class="cls-1" d="M486.72,265.6c.45.08,1.6-.24,2.39-4.79,5.92.63,10.8,0,14.49-1.92.18,3.13.47,4,.89,4.35,1.17-.17,1.35-5.87,1.36-6.11h0c0-.61.14-6-1-7.25h-.22a2,2,0,0,0-.19.22c-.39.87-.67,2.08-.86,5.44-3.64,1.9-8.45,2.52-14.29,1.9-.3-5.95-1.9-5.55-2.49-4.89C484.81,254.8,484.19,265.18,486.72,265.6Zm17.89-12.24c.11-.2.27-.31.44.22a11.08,11.08,0,0,1,.27,2.95h0c0,1-.15,3-.57,3.36C503.92,260.18,504.1,254.29,504.61,253.36Zm-17.35,2.19c.7-.35,1.2,1.58,1,3.83-.1,1.06-.48,2.86-1.24,2.87C485.55,261.79,486.3,256,487.26,255.55Z"/><path class="cls-1" d="M379.89,278.94a3.7,3.7,0,0,0,2.73,2.17c3,.46,7.81-4.32,3.67-9.2-4.7-2-6.35,2.45-6.74,3.85-8.82,2.23-20.67,4.84-29.57,6.67a681,681,0,0,1-49.3,58.94c.75,17.1.75,17.1,1.38,37.9q6.29,4.64,12.37,8.9a372.81,372.81,0,0,1-30,26c-4.94-.88-6.66,1.49-7.06,2.24-1.9,3.47,3.33,6.41,7.56,4.25,3.2-1.62,2.23-4,1.91-4.81a369.45,369.45,0,0,0,32.57-28.35q-6.76-4.67-13.78-9.83c-.33-10.59-.86-24.7-1.33-35.27a657.63,657.63,0,0,0,47.27-56.92C360.09,283.73,371.42,281.06,379.89,278.94Z"/><path class="cls-1" d="M348.26,348.25c-.58,4.28,4.28,6.24,7.77,3.14h0a5.14,5.14,0,0,0,1.36-6.27c32.95-41.92,57.85-88.92,72-133.68,0-.22-3.65-21.63-2.85-23.57a5.69,5.69,0,0,0-.91-5.77,2.73,2.73,0,0,0-2,0c-1.79,1.09-3.7,7.5.33,8.51,1,6.28,2.36,14.64,3.39,20.91C412.78,255.64,387.75,302,355,343.44,349.05,343.06,348.29,348,348.26,348.25Z"/><path class="cls-1" d="M77.17,99c2-2.12,4.82-5.91,4.35-6.6-.38,0-.81.27-1.92,1.32A21.91,21.91,0,0,1,84.49,84L82,86.77a21.91,21.91,0,0,0-4.7,9.46c-2.29,3-2.57,3.9-2.56,4.4l.14.09C75.12,100.67,75.65,100.53,77.17,99Z"/><path class="cls-1" d="M206.67,425.18a3.53,3.53,0,0,0,1.73-1.31c1.31-2.24-1.84-5.83-6.59-5.06q-8-6.53-15.86-13.36c-2.7-37.53-2.7-37.53-3.68-53q7.72-7.38,16-15.4a6,6,0,0,0,2.19.54c3.31.08,6.95-3.72,3.2-8.15a7.77,7.77,0,0,0-1.68-1.11c-3.55-1.48-8.19,1.49-6.1,6.39q-8.7,8.49-16.79,16.28c1,16.36,1,16.36,3.94,55.06q8.27,7.2,16.68,14.07a2.79,2.79,0,0,0-.24.45C198.33,423.44,203.06,426.45,206.67,425.18Z"/><path class="cls-1" d="M289.12,433a5.39,5.39,0,0,0-2.39-1.95c-6.69-2.09-12.15,2.37-10.47,5.62.11.2.3.44.43.63a236.92,236.92,0,0,1-31.39,16.49q9.36,6.12,18,11.08c-3.38,2.38,0,3.79,1.62,4.14a14.94,14.94,0,0,0,6-.14c3.73-.92,5-3.08,2.64-4.44-.79-.46-3.13-1.42-7.67-.56q-7.77-4.44-16.09-9.8a235.21,235.21,0,0,0,29.07-15.32C285.7,440.69,290.87,436.22,289.12,433Zm-6.89-.21c2.67-.43,4.69,1.2,3.54,2.85a3.08,3.08,0,0,1-1.08.91,4.84,4.84,0,0,1-4.53,0C278.28,435.2,279.77,433.18,282.23,432.79Zm-14.92,32.37c2.41-.51,4.84.36,4.2,1.49a2.92,2.92,0,0,1-1.54,1,6.49,6.49,0,0,1-4.25-.18C264.27,466.53,265.67,465.5,267.31,465.16Z"/><path class="cls-1" d="M396.32,445.66a235,235,0,0,0,19.76-17.61q2.06-2,4.05-4.14a12.93,12.93,0,0,0,4.12-2.86s3.94-4,2-4.61c-2.76.2-8,5.35-7.51,7.34-1.33,1.39-2.69,2.77-4.06,4.14q-8.29,8.28-17.12,15.49a82.62,82.62,0,0,1-11.75-2.21c1.81-5,3.41-12,5.21-17.06.2-.56.81-.55,1.19-.87,1.59-1.33,2.61-3,2.53-4.1-.18-2.6-5.16-1.17-7.95,2.28-1.76,2.17-1.7,4.29,1.21,4-1.4,5.39-3.67,12.47-5.46,17.74A81.93,81.93,0,0,0,396.32,445.66Z"/><path class="cls-1" d="M460.34,389c-2.21,1-6.75,7.34-6,8.43.34,0,.44,0,1.21-.57-5.56,13-9.36,18.64-18.51,27.62l2.81-2.75h0l3.76-3.85c3.25-3.9,7.71-9.15,9.8-13.77,1.27-2.83,2.62-6.79,4.25-9.43.58-.94,1.35-1.73,1.91-2.67,1.31-2.23,1.23-2.69,1-3Z"/><path class="cls-1" d="M444.46,417l-.84.86h0Z"/><path class="cls-1" d="M123,426.8h0c1.47-.27,2.45-2.11-.85-4.82-3-2-5-1.46-5.38,0-26.84-8.44-33.23-11.58-34.65-12.7l.86,1c6.09,4.11,27.63,11.1,34.09,13.14A6.57,6.57,0,0,0,123,426.8Zm-3.47-4.53c1.62,0,3.53,2,2.69,2.81a1,1,0,0,1-.34.2h0a2.87,2.87,0,0,1-2.53-.87C118.12,423.26,118.43,422.3,119.48,422.27Z"/><path class="cls-1" d="M146.56,344.3c2.21,3.74,5.38,2.86,6.31,2.26,0,0,3.63-2.63.19-6.9-3.15-2.75-6.05-1.53-6.93,1.19-61.12-4.5-79.57-5.86-95,.68C38.74,323.42,29.9,306.61,26.16,293a57.61,57.61,0,0,1-1.35-6l.63,3.76c.3,1.62.69,3.34,1.19,5.14,3.72,13.5,12.56,30.25,24.91,48.27C57.09,341.27,67.4,335.88,146.56,344.3Z"/><path class="cls-1" d="M236.16,151.24A609.58,609.58,0,0,0,152,221c-1.39,1.38-2.77,2.77-4.13,4.15-5.25-1.84-6.68,3.48-6.74,3.71-1.07,4.17,2.41,7.87,6.43,5.32,2-1.4,2.72-3.61,2.22-6.58q2-2.07,4.13-4.16a630.47,630.47,0,0,1,86.72-71.86c-28.74-36.7-49.68-71.85-57-98.38-6.19-22.49-1.7-35.55,11-39.43l-3.4,1.07c-12.59,4-17,17.14-10.8,39.59C187.71,80.57,208.1,115.09,236.16,151.24Z"/><path class="cls-1" d="M206.14,45.56c7.88,28.62,32.51,67.83,65.75,107.74a812.57,812.57,0,0,0-104,87.35,20.4,20.4,0,0,1-4.79,3.86c-4.72-.78-6,2.82-6.23,3.94-1,4.09,2.84,7.89,6.87,5.39,2-1.38,2.7-3.59,2.08-6.57,1.37-1.38,2.75-2.77,4.14-4.15a849.11,849.11,0,0,1,106.36-89.63c-33.82-40.26-59-80-66.9-108.86-6.26-22.7-.9-35.16,13.22-37.68l-3.52.67C205.13,10.31,199.88,22.86,206.14,45.56Z"/><text class="cls-2" transform="translate(127.12 412.67)">HS</text><text class="cls-3" transform="translate(118.72 407.05)">HS</text><path class="cls-4" d="M416.69,114.27l-2.77,1.27s.05,2.4,2.94,1.9C416.7,115.87,416.69,114.27,416.69,114.27Z"/><path class="cls-4" d="M416.06,127.45c-7.67,0-10.53-4.62-11.11-7.86l4-1.85c.12.63,1.07,6.16,8.22,5.33l.16,4.35A7.85,7.85,0,0,1,416.06,127.45Z"/><path class="cls-4" d="M415.32,137.63c-11.26,0-17.41-8.7-19.3-14.07l4-1.77c.2.56,4.54,13.42,17.55,11.49l.25,4.2A12.31,12.31,0,0,1,415.32,137.63Z"/><path class="cls-4" d="M414.38,148.22a28.33,28.33,0,0,1-18.88-7.67c-5.62-5-8.51-10-9-12.66l4-1.81c.29,1.68,3,6.86,7.86,11.24,4.12,3.69,10.63,7.88,19.6,6.35l.22,4.28A18.87,18.87,0,0,1,414.38,148.22Z"/><path class="cls-4" d="M418.62,159.07c-29.52-.6-41.22-25.75-41.73-26.84l3.93-1.78c.11.25,10.85,23.73,37.63,24.27Z"/><path class="cls-4" d="M418.26,170.92c-33.68,0-51.33-32.47-52.08-33.88l4-1.78c.17.33,17,32.21,48.85,31.32l.21,4.33Z"/></svg>